<?xml version="1.0" encoding="utf-8"?>
<!-- Generator: Adobe Illustrator 23.0.1, SVG Export Plug-In . SVG Version: 6.00 Build 0)  -->
<svg version="1.1" id="Layer_1" xmlns="http://www.w3.org/2000/svg" xmlns:xlink="http://www.w3.org/1999/xlink" x="0px" y="0px"
	 viewBox="0 0 336.9 96.7" style="enable-background:new 0 0 336.9 96.7;" xml:space="preserve">
<style type="text/css">
	.st0{fill:#FFFFFF;}
	.st1{enable-background:new    ;}
</style>
<title>logo2</title>
<g id="Livello_2">
	<g id="Livello_1-2">
		<g>
			<path class="st0" d="M68.1,68.4c0.6-10.6,1.1-21.1,1.7-31.7c0-0.5,0.1-1.2,0.1-2s0-1.5-0.1-2.3c-0.1-0.7-0.2-1.3-0.5-1.9
				c-0.2-0.5-0.6-0.8-1.1-0.9s-1,0.1-1.2,0.5c-0.3,0.5-0.5,1.1-0.7,1.7c-0.1,0.7-0.2,1.4-0.3,2.1c0,0.8-0.1,1.4-0.1,1.9
				c-0.5,10.1-1,20.1-1.5,30.2c-3-1.9-5.9-4-8.8-6.1c0.3-8.8,0.7-17.6,1-26.4c0-0.5,0-1,0-1.7c0-0.6,0-1.3-0.1-1.9s-0.2-1.1-0.5-1.6
				c-0.2-0.4-0.7-0.7-1.2-0.8c-0.4-0.1-0.9,0-1.2,0.4s-0.5,0.9-0.6,1.4c-0.1,0.6-0.2,1.1-0.2,1.7s-0.1,1.1-0.1,1.6L52,57.4
				c-2.8-2.2-5.6-4.5-8.4-6.8v-21c0-3.8,1-6.5,2.9-8.3s4.9-2.9,8.7-2.9c1.2,0,2.3,0.1,3.5,0.4s2.3,0.8,3.2,1.6
				c1-0.7,2.1-1.3,3.4-1.6c1.2-0.3,2.3-0.4,3.5-0.5c3.8,0,6.6,1.4,8.4,4.6s2.5,8.2,2.2,14.7l-2,36C74.2,72.1,71.1,70.3,68.1,68.4"/>
		</g>
		<g>
			<path class="st0" d="M95.3,82.3c0.4-7.9,0.8-15.9,1.2-23.8c-1.3-0.3-2.6-0.7-3.9-1c-0.4,7.7-0.8,15.4-1.2,23.2
				c-3.2-1.4-6.4-2.9-9.5-4.5L84,38.5c0.4-6.8,1.7-11.8,3.8-15.1c1.9-3.1,5.2-5.1,8.9-5.1c3.9,0,6.7,1.9,8.4,5.8
				c1.7,3.9,2.4,9.9,2,17.8l-2,44.1C101.8,84.9,98.5,83.6,95.3,82.3 M97.4,41.9c0-0.6,0.1-1.5,0.1-2.5s0-2,0-2.9S97.3,34.8,97,34
				c-0.2-0.7-0.6-1.1-1.2-1.1s-1.1,0.3-1.2,0.9c-0.3,0.7-0.6,1.5-0.7,2.2c-0.2,0.9-0.3,1.8-0.3,2.8c-0.1,1-0.1,1.8-0.2,2.4
				c0,0.6-0.1,1.2-0.1,1.8l3.9,0.7L97.4,41.9"/>
		</g>
		<g>
			<path class="st0" d="M136.7,41c-0.1,1.9-0.2,3.8-0.4,5.7c-0.2,1.8-0.5,3.5-1,5.2c-0.4,1.5-0.9,2.9-1.6,4.2
				c-0.5,1.1-1.3,2-2.2,2.7c0.9,1,1.5,2.1,2,3.3c0.6,1.5,1.1,3.1,1.3,4.7c0.3,1.8,0.6,3.6,0.7,5.5c0.2,1.9,0.2,3.7,0.2,5.6
				c-0.1,5.3-0.3,10.7-0.4,16c-3.3-0.6-6.6-1.2-9.8-2l0.4-11.5c0.1-1.7,0.1-3.4,0-5.2c0-1.5-0.2-3.1-0.5-4.6
				c-0.2-1.2-0.6-2.3-1.2-3.3c-0.5-0.8-1.3-1.4-2.3-1.6l-0.8-0.1l-1,25c-3.3-0.9-6.7-1.8-10-2.9c1-22.5,2-45.1,3-67.7l14,0.1
				c1.4,0,2.7,0.5,3.8,1.3c1.3,1.1,2.4,2.4,3.1,3.9c1,2.1,1.7,4.3,2.1,6.5C136.6,34.8,136.8,37.9,136.7,41 M126.7,44.1
				c0.2-1.8-0.1-3.6-0.8-5.3c-0.8-1.3-2.2-2.1-3.7-2.1H122l-0.5,13.9l0.7,0.1c0.5,0.1,1,0.1,1.4,0c0.6-0.1,1.1-0.4,1.4-0.8
				c0.5-0.6,0.9-1.3,1.1-2C126.5,46.7,126.7,45.5,126.7,44.1"/>
		</g>
		<g>
			<path class="st0" d="M139.5,94.5c0.6-24.8,1.2-49.6,1.8-74.4h9.6c-0.4,25.2-0.8,50.4-1.2,75.6C146.3,95.4,142.9,95,139.5,94.5"/>
		</g>
		<g>
			<path class="st0" d="M169.2,96.7V47.2c0-0.8,0-1.8,0-3s-0.1-2.4-0.2-3.6c-0.1-1-0.3-2-0.6-2.9c-0.3-0.8-0.7-1.2-1.2-1.2
				s-0.9,0.4-1.2,1.2c-0.3,0.9-0.5,1.9-0.6,2.9c-0.1,1.1-0.2,2.3-0.2,3.6s0,2.2,0,3c0,16.5-0.1,33-0.1,49.5
				c-3.4-0.1-6.9-0.2-10.3-0.4c0.2-16.9,0.4-33.8,0.6-50.7c0.1-9.2,1.2-16,3.2-20.5s4.9-6.7,8.7-6.7s6.8,2.3,8.8,6.8
				s3,11.3,3.1,20.4c0.1,16.9,0.3,33.9,0.5,50.8C176.2,96.6,172.8,96.7,169.2,96.7"/>
		</g>
		<g>
			<path class="st0" d="M184.6,96l-1-75.9c7.7,0,15.4,0,23.1-0.1l0.6,18.4c-4.6,0.3-9.1,0.5-13.7,0.7l0.2,9.6
				c4.1-0.2,8.2-0.5,12.2-0.9l0.5,17.2c-4.1,0.5-8.3,1-12.4,1.4c0.1,3.2,0.1,6.4,0.2,9.6c4.9-0.5,9.7-1.2,14.5-2
				c0.2,6.1,0.4,12.2,0.6,18.3C201.3,94,192.9,95.3,184.6,96"/>
		</g>
		<g>
			<path class="st0" d="M225.2,88.2c-0.7-14.7-1.3-29.4-1.9-44.1c0-0.7-0.1-1.6-0.1-2.7s-0.2-2.2-0.3-3.2c-0.1-0.9-0.3-1.7-0.7-2.6
				c-0.3-0.7-0.7-1-1.3-1s-0.9,0.4-1.2,1.2c-0.3,0.9-0.4,1.8-0.5,2.7c-0.1,1-0.1,2.1,0,3.2s0.1,2,0.1,2.8l1.8,44.9
				c-3.3,0.9-6.7,1.8-10,2.6c-0.5-16-1.1-32-1.6-48c-0.3-8.7,0.5-15.2,2.3-19.4s4.6-6.2,8.4-6.2s6.9,2,9,5.9s3.4,9.6,3.7,17.3
				c0.7,14.4,1.4,28.9,2.1,43.3C231.8,86,228.5,87.1,225.2,88.2"/>
		</g>
		<g>
			<path class="st0" d="M267.4,49.6c0.2,3-0.1,5.9-0.7,8.8c-0.6,2.8-1.5,5.5-2.6,8.1c-1.1,2.4-2.5,4.7-4.1,6.7
				c-1.4,1.8-3.1,3.3-5.1,4.3c-2,1.2-4.4,1.5-6.6,0.9c-2.2-0.9-4.1-2.5-5.3-4.6c-1.7-2.9-3-6-3.7-9.3c-1-4.3-1.6-8.6-1.8-13
				c-0.3-4.5-0.1-9,0.4-13.5c0.4-3.6,1.3-7.2,2.6-10.6c1-2.6,2.6-4.9,4.6-6.8c1.8-1.5,4.1-2.4,6.5-2.3c4,0,7.7,1.9,10.1,5.1
				c2.7,3.3,4.4,7.9,5.1,14.2c-3.1,0.7-6.1,1.3-9.2,2c-0.2-2-0.8-3.9-1.9-5.5c-1-1.7-3.3-2.3-5-1.3c-0.6,0.3-1,0.8-1.4,1.4
				c-0.8,1.3-1.3,2.7-1.6,4.1c-0.4,1.8-0.6,3.6-0.6,5.4c-0.1,2,0,3.8,0.1,5.7s0.3,3.7,0.6,5.5c0.2,1.7,0.6,3.4,1.2,5
				c0.4,1.2,1.1,2.4,2,3.3c0.8,0.8,2,0.9,3,0.4c0.8-0.3,1.5-0.8,2-1.5c0.6-0.8,1-1.6,1.3-2.5c0.4-1,0.6-2.1,0.8-3.2
				c0.2-1.2,0.3-2.4,0.3-3.7c3.1-1,6.1-2.1,9.2-3.2L267.4,49.6"/>
		</g>
		<g>
			<path class="st0" d="M272.1,66.4c-0.8-15.6-1.6-31.3-2.4-46.9c7.7-0.1,15.3-0.2,23-0.4c0,2.7,0,5.4,0,8.1
				c-4.3,0.9-8.7,1.8-13,2.5L280,35c3.8-1,7.7-2.1,11.4-3.3l0.1,7.8c-3.7,1.8-7.4,3.5-11.1,5.2l0.2,5.2c4.3-2.3,8.6-4.7,12.7-7.3v8
				C286.6,56.3,279.5,61.6,272.1,66.4"/>
		</g>
		<g class="st1">
			<path class="st0" d="M51.7,8.9l2.1,0.7c-0.3,1.2-0.9,2.1-1.6,2.6c-0.8,0.6-1.7,0.9-2.9,0.9c-1.4,0-2.6-0.5-3.5-1.5
				s-1.4-2.3-1.4-4c0-1.8,0.5-3.2,1.4-4.2s2.2-1.5,3.7-1.5c1.3,0,2.4,0.4,3.2,1.2c0.5,0.5,0.9,1.1,1.1,2l-2.2,0.5
				c-0.1-0.6-0.4-1-0.8-1.3c-0.4-0.3-0.9-0.5-1.5-0.5c-0.8,0-1.5,0.3-2,0.9s-0.8,1.5-0.8,2.8c0,1.4,0.2,2.3,0.7,2.9
				c0.5,0.6,1.1,0.9,1.9,0.9c0.6,0,1.1-0.2,1.5-0.6C51.2,10.3,51.5,9.7,51.7,8.9z"/>
			<path class="st0" d="M55.7,12.9V2.1h2.2V11h5.4v1.8L55.7,12.9L55.7,12.9z"/>
		</g>
		<g class="st1">
			<path class="st0" d="M65.9,12.9V2h8v1.8h-5.8v2.4h5.4V8h-5.4v3h6.1v1.8L65.9,12.9L65.9,12.9z"/>
		</g>
		<g class="st1">
			<path class="st0" d="M84.4,12.9H82l-1-2.5h-4.3l-0.9,2.5h-2.3L77.7,2H80L84.4,12.9z M80.3,8.6l-1.5-4l-1.5,4H80.3z"/>
			<path class="st0" d="M85.5,12.9V2h4.6c1.2,0,2,0.1,2.5,0.3s0.9,0.5,1.3,1c0.3,0.5,0.5,1.1,0.5,1.7c0,0.8-0.2,1.5-0.7,2
				s-1.2,0.9-2.1,1c0.4,0.4,0.8,0.7,1.1,1s0.7,0.9,1.2,1.8l1.3,2.1h-2.6L91,10.5c-0.6-0.8-0.9-1.4-1.2-1.6c-0.2-0.2-0.4-0.4-0.7-0.5
				S88.5,8.3,88,8.3h-0.4v4.5h-2.1V12.9z M87.7,6.6h1.6c1,0,1.7,0,2-0.1s0.5-0.2,0.6-0.5c0.1-0.2,0.2-0.5,0.2-0.8
				c0-0.4-0.1-0.7-0.3-0.9C91.6,4.1,91.4,4,91,3.9c-0.2,0-0.7,0-1.6,0h-1.7C87.7,3.9,87.7,6.6,87.7,6.6z"/>
		</g>
		<g class="st1">
			<path class="st0" d="M95.6,12.9L93,2h2.2l1.6,7.4l2-7.4h2.6l1.9,7.6L105,2h2.2l-2.6,10.8h-2.3l-2.2-8.1L98,12.9H95.6z"/>
		</g>
		<g class="st1">
			<path class="st0" d="M118,12.9h-2.4l-0.9-2.5h-4.3l-0.9,2.5h-2.3L111.4,2h2.3L118,12.9z M114,8.6l-1.5-4l-1.5,4H114z"/>
		</g>
		<g class="st1">
			<path class="st0" d="M120.3,12.9v-9H117V2h8.6v1.8h-3.2v9L120.3,12.9L120.3,12.9z"/>
		</g>
		<g class="st1">
			<path class="st0" d="M127.5,12.9V2h8v1.8h-5.8v2.4h5.4V8h-5.4v3h6.1v1.8L127.5,12.9L127.5,12.9z"/>
		</g>
		<g class="st1">
			<path class="st0" d="M136.2,12.9V2h4.6c1.2,0,2,0.1,2.5,0.3s0.9,0.5,1.3,1c0.3,0.5,0.5,1.1,0.5,1.7c0,0.8-0.2,1.5-0.7,2
				s-1.2,0.9-2.1,1c0.5,0.3,0.9,0.6,1.2,0.9s0.7,0.9,1.2,1.8l1.3,2.1h-2.6l-1.6-2.4c-0.6-0.8-0.9-1.4-1.2-1.6
				c-0.2-0.2-0.4-0.4-0.7-0.5s-0.6-0.1-1.1-0.1h-0.4v4.5h-2.2V12.9z M138.4,6.6h1.6c1,0,1.7,0,2-0.1s0.5-0.2,0.6-0.5
				c0.1-0.2,0.2-0.5,0.2-0.8c0-0.4-0.1-0.7-0.3-0.9c-0.2-0.2-0.5-0.4-0.8-0.4c-0.2,0-0.7,0-1.6,0h-1.7V6.6z"/>
			<path class="st0" d="M151.3,12.9V2h3.3l2,7.4l1.9-7.4h3.3v10.8h-2V4.3l-2.1,8.5h-2.1l-2.1-8.5v8.5L151.3,12.9L151.3,12.9z"/>
			<path class="st0" d="M173.7,12.9h-2.4l-0.9-2.5H166l-0.9,2.5h-2.3L167,2h2.3L173.7,12.9z M169.7,8.6l-1.5-4l-1.5,4H169.7z"/>
			<path class="st0" d="M174.9,12.9V2h4.6c1.2,0,2,0.1,2.5,0.3s0.9,0.5,1.3,1c0.3,0.5,0.5,1.1,0.5,1.7c0,0.8-0.2,1.5-0.7,2
				s-1.2,0.9-2.1,1c0.5,0.3,0.9,0.6,1.2,0.9s0.7,0.9,1.2,1.8l1.3,2.1H182l-1.6-2.4c-0.6-0.8-0.9-1.4-1.2-1.6
				c-0.2-0.2-0.4-0.4-0.7-0.5s-0.6-0.1-1.1-0.1H177v4.5h-2.1V12.9z M177,6.6h1.6c1,0,1.7,0,2-0.1s0.5-0.2,0.6-0.5
				c0.1-0.2,0.2-0.5,0.2-0.8c0-0.4-0.1-0.7-0.3-0.9c-0.2-0.2-0.5-0.4-0.8-0.4c-0.2,0-0.7,0-1.6,0H177V6.6z"/>
			<path class="st0" d="M185.7,12.9V2h2.2v10.8L185.7,12.9L185.7,12.9z"/>
			<path class="st0" d="M190,12.9V2h2.1l4.4,7.2V2h2v10.8h-2.2l-4.3-7v7.1H190z"/>
			<path class="st0" d="M200.9,12.9V2h8v1.8h-5.8v2.4h5.4V8h-5.4v3h6.1v1.8L200.9,12.9L200.9,12.9z"/>
			<path class="st0" d="M224.4,12.9H222l-0.9-2.5h-4.3l-0.9,2.5h-2.3L217.8,2h2.3L224.4,12.9z M220.4,8.6l-1.5-4l-1.5,4H220.4z"/>
			<path class="st0" d="M234.3,11.5c0.5,0.4,1.1,0.7,1.8,0.9l-0.8,1.5c-0.3-0.1-0.7-0.2-1-0.4c-0.1,0-0.6-0.4-1.5-1
				c-0.7,0.3-1.5,0.5-2.4,0.5c-1.7,0-3-0.5-3.9-1.5s-1.4-2.4-1.4-4.1c0-1.8,0.5-3.1,1.4-4.1s2.2-1.5,3.8-1.5s2.9,0.5,3.8,1.5
				s1.4,2.4,1.4,4.1c0,0.9-0.1,1.8-0.4,2.5C235,10.5,234.7,11,234.3,11.5z M232.5,10.3c0.3-0.3,0.5-0.7,0.6-1.2s0.2-1,0.2-1.6
				c0-1.3-0.3-2.2-0.8-2.8s-1.3-0.9-2.2-0.9s-1.6,0.3-2.2,0.9c-0.6,0.6-0.8,1.6-0.8,2.8c0,1.3,0.3,2.2,0.8,2.8
				c0.6,0.6,1.3,0.9,2.1,0.9c0.3,0,0.6-0.1,0.9-0.2c-0.4-0.3-0.9-0.5-1.4-0.7l0.6-1.2C231.2,9.4,231.9,9.8,232.5,10.3z"/>
		</g>
		<g class="st1">
			<path class="st0" d="M235.9,2h2.2v5.9c0,0.9,0,1.5,0.1,1.8c0.1,0.4,0.3,0.8,0.7,1.1s0.8,0.4,1.4,0.4c0.6,0,1.1-0.1,1.4-0.4
				c0.3-0.3,0.5-0.6,0.6-0.9c0.1-0.4,0.1-1,0.1-1.8V2h2.2v5.7c0,1.3-0.1,2.2-0.2,2.8c-0.1,0.5-0.3,1-0.7,1.4
				c-0.3,0.4-0.7,0.7-1.3,0.9c-0.5,0.2-1.2,0.3-2.1,0.3c-1,0-1.8-0.1-2.4-0.4c-0.5-0.2-1-0.5-1.3-0.9s-0.5-0.8-0.6-1.2
				c-0.1-0.6-0.2-1.5-0.2-2.7V2H235.9z"/>
		</g>
		<g class="st1">
			<path class="st0" d="M255.2,12.9h-2.4l-0.9-2.5h-4.3l-0.9,2.5h-2.3L248.5,2h2.3L255.2,12.9z M251.1,8.6l-1.5-4l-1.5,4H251.1z"/>
			<path class="st0" d="M256.3,12.9V2h4.6c1.2,0,2,0.1,2.5,0.3s0.9,0.5,1.3,1c0.3,0.5,0.5,1.1,0.5,1.7c0,0.8-0.2,1.5-0.7,2
				s-1.2,0.9-2.1,1c0.5,0.3,0.9,0.6,1.2,0.9s0.7,0.9,1.2,1.8l1.3,2.1h-2.6l-1.6-2.4c-0.6-0.8-0.9-1.4-1.2-1.6
				c-0.2-0.2-0.4-0.4-0.7-0.5s-0.6-0.1-1.1-0.1h-0.4v4.5h-2.2V12.9z M258.5,6.6h1.6c1,0,1.7,0,2-0.1s0.5-0.2,0.6-0.5
				s0.2-0.5,0.2-0.8c0-0.4-0.1-0.7-0.3-0.9c-0.2-0.2-0.5-0.4-0.8-0.4c-0.2,0-0.7,0-1.6,0h-1.7L258.5,6.6L258.5,6.6z"/>
			<path class="st0" d="M267.2,12.9V2h2.2v10.8L267.2,12.9L267.2,12.9z"/>
			<path class="st0" d="M271.4,2h2.2v5.9c0,0.9,0,1.5,0.1,1.8c0.1,0.4,0.3,0.8,0.7,1.1c0.4,0.3,0.8,0.4,1.4,0.4s1.1-0.1,1.4-0.4
				c0.3-0.3,0.5-0.6,0.6-0.9c0.1-0.4,0.1-1,0.1-1.8V2h2.2v5.7c0,1.3-0.1,2.2-0.2,2.8c-0.1,0.5-0.3,1-0.7,1.4
				c-0.3,0.4-0.7,0.7-1.3,0.9c-0.5,0.2-1.2,0.3-2.1,0.3c-1,0-1.8-0.1-2.4-0.4c-0.5-0.2-1-0.5-1.3-0.9s-0.5-0.8-0.6-1.2
				c-0.1-0.6-0.2-1.5-0.2-2.7L271.4,2L271.4,2z"/>
			<path class="st0" d="M282.4,12.9V2h3.3l2,7.4l1.9-7.4h3.3v10.8h-2V4.3l-2.2,8.5h-2.1l-2.1-8.5v8.5L282.4,12.9L282.4,12.9z"/>
		</g>
	</g>
</g>
<path class="st0" d="M306.6,34.8l7.4,0.3c1.1-1.3,2-2.7,2.6-3.9l-8.5-0.7l8.8-0.2c0.1-0.4,0.2-0.8,0.2-1.1c0-1-0.1-1.8-0.3-2.6
	l-6.5-0.3l6.1-0.8c-0.9-2.1-2.8-3.2-4.4-3.8c3.9,0.5,10.2,0.7,13.9-3.1l-16-2.4l17.3,0.8c0.6-1,1.1-2.3,1.4-3.7l-16.1-1.4l16.3-0.3
	c0-0.5,0.1-1.1,0.1-1.7c0-0.5,0-0.9-0.1-1.4l-18.2-0.8l16.9-2.3c-5.5-7.2-25.1-3.1-25.1-3.1l0.6,42.3c0,0,6.3-4.1,10.5-8.7
	L306.6,34.8z"/>
<path class="st0" d="M31.7,34.8l-7.4,0.3c-1.1-1.3-2-2.7-2.6-3.9l8.5-0.7l-8.8-0.2c-0.1-0.4-0.2-0.8-0.2-1.1c0-1,0.1-1.8,0.3-2.6
	l6.5-0.3l-6.1-0.8c0.9-2.1,2.8-3.2,4.4-3.8c-3.9,0.5-10.2,0.7-13.9-3.1l16-2.4L11.1,17c-0.6-1-1.1-2.3-1.4-3.7l16.1-1.4L9.5,11.4
	c0-0.5-0.1-1.1-0.1-1.7c0-0.5,0-0.9,0.1-1.4l18.2-0.8L10.8,5.3C16.3-1.9,36,2.2,36,2.2l-0.6,42.3c0,0-6.3-4.1-10.5-8.7L31.7,34.8z"
	/>
</svg>
