<?xml version="1.0" encoding="utf-8"?>
<!-- Generator: Adobe Illustrator 23.0.2, SVG Export Plug-In . SVG Version: 6.00 Build 0)  -->
<svg version="1.1" id="Layer_1" xmlns="http://www.w3.org/2000/svg" xmlns:xlink="http://www.w3.org/1999/xlink" x="0px" y="0px"
	 viewBox="0 0 336.9 96.7" style="enable-background:new 0 0 336.9 96.7;" xml:space="preserve">
<style type="text/css">
	.st0{fill:#65C6E0;}
	.st1{fill:#FFFFFF;}
	.st2{enable-background:new    ;}
</style>
<rect x="-0.5" y="-0.5" class="st0" width="338" height="98"/>
<title>logo2</title>
<g>
	<g id="Livello_1-2">
		<g>
			<path class="st1" d="M123.6,57.7c0.3-4.8,0.5-9.5,0.8-14.3c0-0.2,0-0.5,0-0.9c0-0.4,0-0.7,0-1c0-0.3-0.1-0.6-0.2-0.9
				c-0.1-0.2-0.3-0.4-0.5-0.4c-0.2,0-0.5,0-0.5,0.2c-0.1,0.2-0.2,0.5-0.3,0.8c0,0.3-0.1,0.6-0.1,0.9c0,0.4,0,0.6,0,0.9
				c-0.2,4.6-0.5,9.1-0.7,13.6c-1.4-0.9-2.7-1.8-4-2.8c0.1-4,0.3-7.9,0.5-11.9c0-0.2,0-0.5,0-0.8c0-0.3,0-0.6,0-0.9
				c0-0.3-0.1-0.5-0.2-0.7c-0.1-0.2-0.3-0.3-0.5-0.4c-0.2,0-0.4,0-0.5,0.2c-0.1,0.2-0.2,0.4-0.3,0.6c0,0.3-0.1,0.5-0.1,0.8
				s0,0.5,0,0.7l-0.3,11.2c-1.3-1-2.5-2-3.8-3.1v-9.5c0-1.7,0.5-2.9,1.3-3.7c0.9-0.8,2.2-1.3,3.9-1.3c0.5,0,1,0,1.6,0.2
				c0.5,0.1,1,0.4,1.4,0.7c0.5-0.3,0.9-0.6,1.5-0.7c0.5-0.1,1-0.2,1.6-0.2c1.7,0,3,0.6,3.8,2.1c0.8,1.4,1.1,3.7,1,6.6L127.8,60
				C126.3,59.3,124.9,58.5,123.6,57.7"/>
		</g>
		<g>
			<path class="st1" d="M135.8,63.9c0.2-3.6,0.4-7.2,0.5-10.7c-0.6-0.1-1.2-0.3-1.8-0.5c-0.2,3.5-0.4,6.9-0.5,10.5
				c-1.4-0.6-2.9-1.3-4.3-2l0.9-17c0.2-3.1,0.8-5.3,1.7-6.8c0.9-1.4,2.3-2.3,4-2.3c1.8,0,3,0.9,3.8,2.6c0.8,1.8,1.1,4.5,0.9,8
				l-0.9,19.9C138.8,65.1,137.3,64.5,135.8,63.9 M136.8,45.7c0-0.3,0-0.7,0-1.1c0-0.5,0-0.9,0-1.3s-0.1-0.8-0.2-1.1
				c-0.1-0.3-0.3-0.5-0.5-0.5c-0.3,0-0.5,0.1-0.5,0.4c-0.1,0.3-0.3,0.7-0.3,1c-0.1,0.4-0.1,0.8-0.1,1.3c0,0.5,0,0.8-0.1,1.1
				c0,0.3,0,0.5,0,0.8l1.8,0.3L136.8,45.7"/>
		</g>
		<g>
			<path class="st1" d="M154.5,45.3c0,0.9-0.1,1.7-0.2,2.6c-0.1,0.8-0.2,1.6-0.5,2.3c-0.2,0.7-0.4,1.3-0.7,1.9
				c-0.2,0.5-0.6,0.9-1,1.2c0.4,0.5,0.7,0.9,0.9,1.5c0.3,0.7,0.5,1.4,0.6,2.1c0.1,0.8,0.3,1.6,0.3,2.5c0.1,0.9,0.1,1.7,0.1,2.5
				c0,2.4-0.1,4.8-0.2,7.2c-1.5-0.3-3-0.5-4.4-0.9l0.2-5.2c0-0.8,0-1.5,0-2.3c0-0.7-0.1-1.4-0.2-2.1c-0.1-0.5-0.3-1-0.5-1.5
				c-0.2-0.4-0.6-0.6-1-0.7l-0.4,0L147,67.7c-1.5-0.4-3-0.8-4.5-1.3c0.5-10.1,0.9-20.3,1.4-30.5l6.3,0c0.6,0,1.2,0.2,1.7,0.6
				c0.6,0.5,1.1,1.1,1.4,1.8c0.5,0.9,0.8,1.9,0.9,2.9C154.5,42.5,154.6,43.9,154.5,45.3 M150,46.7c0.1-0.8,0-1.6-0.4-2.4
				c-0.4-0.6-1-0.9-1.7-0.9h-0.1l-0.2,6.3l0.3,0c0.2,0,0.5,0,0.6,0c0.3,0,0.5-0.2,0.6-0.4c0.2-0.3,0.4-0.6,0.5-0.9
				C149.9,47.9,150,47.3,150,46.7"/>
		</g>
		<g>
			<path class="st1" d="M155.8,69.4c0.3-11.2,0.5-22.4,0.8-33.6h4.3c-0.2,11.4-0.4,22.7-0.5,34.1C158.8,69.9,157.3,69.7,155.8,69.4"
				/>
		</g>
		<g>
			<path class="st1" d="M169.2,70.4V48.1c0-0.4,0-0.8,0-1.4c0-0.5,0-1.1-0.1-1.6c0-0.5-0.1-0.9-0.3-1.3c-0.1-0.4-0.3-0.5-0.5-0.5
				s-0.4,0.2-0.5,0.5c-0.1,0.4-0.2,0.9-0.3,1.3c0,0.5-0.1,1-0.1,1.6c0,0.6,0,1,0,1.4c0,7.4,0,14.9,0,22.3c-1.5,0-3.1-0.1-4.6-0.2
				c0.1-7.6,0.2-15.2,0.3-22.9c0-4.1,0.5-7.2,1.4-9.2c0.9-2,2.2-3,3.9-3c1.7,0,3.1,1,4,3.1s1.4,5.1,1.4,9.2c0,7.6,0.1,15.3,0.2,22.9
				C172.3,70.4,170.8,70.4,169.2,70.4"/>
		</g>
		<g>
			<path class="st1" d="M176.1,70.1l-0.5-34.2c3.5,0,6.9,0,10.4,0l0.3,8.3c-2.1,0.1-4.1,0.2-6.2,0.3l0.1,4.3
				c1.8-0.1,3.7-0.2,5.5-0.4l0.2,7.8c-1.8,0.2-3.7,0.5-5.6,0.6c0,1.4,0,2.9,0.1,4.3c2.2-0.2,4.4-0.5,6.5-0.9
				c0.1,2.8,0.2,5.5,0.3,8.3C183.6,69.2,179.9,69.8,176.1,70.1"/>
		</g>
		<g>
			<path class="st1" d="M194.4,66.6c-0.3-6.6-0.6-13.3-0.9-19.9c0-0.3,0-0.7,0-1.2s-0.1-1-0.1-1.4c0-0.4-0.1-0.8-0.3-1.2
				c-0.1-0.3-0.3-0.5-0.6-0.5c-0.3,0-0.4,0.2-0.5,0.5c-0.1,0.4-0.2,0.8-0.2,1.2c0,0.5,0,0.9,0,1.4s0,0.9,0,1.3l0.8,20.3
				c-1.5,0.4-3,0.8-4.5,1.2c-0.2-7.2-0.5-14.4-0.7-21.6c-0.1-3.9,0.2-6.9,1-8.7c0.8-1.9,2.1-2.8,3.8-2.8s3.1,0.9,4.1,2.7
				c0.9,1.8,1.5,4.3,1.7,7.8c0.3,6.5,0.6,13,0.9,19.5C197.4,65.6,195.9,66.1,194.4,66.6"/>
		</g>
		<g>
			<path class="st1" d="M213.5,49.2c0.1,1.4,0,2.7-0.3,4c-0.3,1.3-0.7,2.5-1.2,3.7c-0.5,1.1-1.1,2.1-1.8,3c-0.6,0.8-1.4,1.5-2.3,1.9
				c-0.9,0.5-2,0.7-3,0.4c-1-0.4-1.8-1.1-2.4-2.1c-0.8-1.3-1.4-2.7-1.7-4.2c-0.5-1.9-0.7-3.9-0.8-5.9c-0.1-2,0-4.1,0.2-6.1
				c0.2-1.6,0.6-3.2,1.2-4.8c0.5-1.2,1.2-2.2,2.1-3.1c0.8-0.7,1.8-1.1,2.9-1c1.8,0,3.5,0.9,4.6,2.3c1.2,1.5,2,3.6,2.3,6.4
				c-1.4,0.3-2.8,0.6-4.1,0.9c-0.1-0.9-0.4-1.8-0.9-2.5c-0.5-0.8-1.5-1-2.3-0.6c-0.3,0.1-0.5,0.4-0.6,0.6c-0.4,0.6-0.6,1.2-0.7,1.8
				c-0.2,0.8-0.3,1.6-0.3,2.4c0,0.9,0,1.7,0,2.6c0,0.9,0.1,1.7,0.3,2.5c0.1,0.8,0.3,1.5,0.5,2.3c0.2,0.5,0.5,1.1,0.9,1.5
				c0.4,0.4,0.9,0.4,1.4,0.2c0.4-0.1,0.7-0.4,0.9-0.7c0.3-0.4,0.5-0.7,0.6-1.1c0.2-0.5,0.3-0.9,0.4-1.4c0.1-0.5,0.1-1.1,0.1-1.7
				C210.8,50.1,212.2,49.6,213.5,49.2L213.5,49.2"/>
		</g>
		<g>
			<path class="st1" d="M215.6,56.8c-0.4-7-0.7-14.1-1.1-21.2c3.5,0,6.9-0.1,10.4-0.2c0,1.2,0,2.4,0,3.7c-1.9,0.4-3.9,0.8-5.9,1.1
				l0.1,2.4c1.7-0.5,3.5-0.9,5.1-1.5l0,3.5c-1.7,0.8-3.3,1.6-5,2.3l0.1,2.3c1.9-1,3.9-2.1,5.7-3.3v3.6
				C222.1,52.2,218.9,54.6,215.6,56.8"/>
		</g>
		<g class="st2">
			<path class="st1" d="M116.2,30.8l0.9,0.3c-0.1,0.5-0.4,0.9-0.7,1.2c-0.4,0.3-0.8,0.4-1.3,0.4c-0.6,0-1.2-0.2-1.6-0.7
				c-0.4-0.5-0.6-1-0.6-1.8c0-0.8,0.2-1.4,0.6-1.9c0.4-0.5,1-0.7,1.7-0.7c0.6,0,1.1,0.2,1.4,0.5c0.2,0.2,0.4,0.5,0.5,0.9l-1,0.2
				c0-0.3-0.2-0.5-0.4-0.6c-0.2-0.1-0.4-0.2-0.7-0.2c-0.4,0-0.7,0.1-0.9,0.4c-0.2,0.3-0.4,0.7-0.4,1.3c0,0.6,0.1,1,0.3,1.3
				c0.2,0.3,0.5,0.4,0.9,0.4c0.3,0,0.5-0.1,0.7-0.3C116,31.5,116.1,31.2,116.2,30.8z"/>
			<path class="st1" d="M118,32.6v-4.9h1v4h2.4v0.8L118,32.6L118,32.6z"/>
		</g>
		<g class="st2">
			<path class="st1" d="M122.6,32.6v-4.9h3.6v0.8h-2.6v1.1h2.4v0.8h-2.4v1.4h2.8v0.8L122.6,32.6L122.6,32.6z"/>
		</g>
		<g class="st2">
			<path class="st1" d="M130.9,32.6h-1.1l-0.5-1.1h-1.9l-0.4,1.1h-1l1.9-4.9h1L130.9,32.6z M129.1,30.7l-0.7-1.8l-0.7,1.8H129.1z"/>
			<path class="st1" d="M131.4,32.6v-4.9h2.1c0.5,0,0.9,0,1.1,0.1c0.2,0.1,0.4,0.2,0.6,0.5c0.1,0.2,0.2,0.5,0.2,0.8
				c0,0.4-0.1,0.7-0.3,0.9c-0.2,0.2-0.5,0.4-0.9,0.5c0.2,0.2,0.4,0.3,0.5,0.5s0.3,0.4,0.5,0.8l0.6,0.9h-1.2l-0.7-1.1
				c-0.3-0.4-0.4-0.6-0.5-0.7c-0.1-0.1-0.2-0.2-0.3-0.2c-0.1,0-0.3,0-0.5,0h-0.2v2L131.4,32.6L131.4,32.6z M132.4,29.8h0.7
				c0.5,0,0.8,0,0.9,0c0.1,0,0.2-0.1,0.3-0.2c0-0.1,0.1-0.2,0.1-0.4c0-0.2,0-0.3-0.1-0.4c-0.1-0.1-0.2-0.1-0.4-0.2
				c-0.1,0-0.3,0-0.7,0h-0.8C132.4,28.6,132.4,29.8,132.4,29.8z"/>
		</g>
		<g class="st2">
			<path class="st1" d="M136,32.6l-1.2-4.9h1l0.7,3.3l0.9-3.3h1.2l0.9,3.4l0.8-3.4h1l-1.2,4.9h-1l-1-3.7l-0.9,3.7H136z"/>
		</g>
		<g class="st2">
			<path class="st1" d="M146.1,32.6H145l-0.4-1.1h-1.9l-0.4,1.1h-1l1.9-4.9h1L146.1,32.6z M144.3,30.7l-0.7-1.8l-0.7,1.8H144.3z"/>
		</g>
		<g class="st2">
			<path class="st1" d="M147.1,32.6v-4.1h-1.5v-0.9h3.9v0.8h-1.4v4.1L147.1,32.6L147.1,32.6z"/>
		</g>
		<g class="st2">
			<path class="st1" d="M150.4,32.6v-4.9h3.6v0.8h-2.6v1.1h2.4v0.8h-2.4v1.4h2.8v0.8L150.4,32.6L150.4,32.6z"/>
		</g>
		<g class="st2">
			<path class="st1" d="M154.3,32.6v-4.9h2.1c0.5,0,0.9,0,1.1,0.1c0.2,0.1,0.4,0.2,0.6,0.5c0.1,0.2,0.2,0.5,0.2,0.8
				c0,0.4-0.1,0.7-0.3,0.9c-0.2,0.2-0.5,0.4-0.9,0.5c0.2,0.1,0.4,0.3,0.5,0.4c0.1,0.1,0.3,0.4,0.5,0.8l0.6,0.9h-1.2l-0.7-1.1
				c-0.3-0.4-0.4-0.6-0.5-0.7c-0.1-0.1-0.2-0.2-0.3-0.2c-0.1,0-0.3,0-0.5,0h-0.2v2L154.3,32.6L154.3,32.6z M155.3,29.8h0.7
				c0.5,0,0.8,0,0.9,0c0.1,0,0.2-0.1,0.3-0.2c0-0.1,0.1-0.2,0.1-0.4c0-0.2,0-0.3-0.1-0.4c-0.1-0.1-0.2-0.2-0.4-0.2
				c-0.1,0-0.3,0-0.7,0h-0.8V29.8z"/>
			<path class="st1" d="M161.1,32.6v-4.9h1.5l0.9,3.3l0.9-3.3h1.5v4.9h-0.9v-3.8l-0.9,3.8H163l-0.9-3.8v3.8L161.1,32.6L161.1,32.6z"
				/>
			<path class="st1" d="M171.2,32.6h-1.1l-0.4-1.1h-2l-0.4,1.1h-1l1.9-4.9h1L171.2,32.6z M169.4,30.7l-0.7-1.8l-0.7,1.8H169.4z"/>
			<path class="st1" d="M171.7,32.6v-4.9h2.1c0.5,0,0.9,0,1.1,0.1c0.2,0.1,0.4,0.2,0.6,0.5c0.1,0.2,0.2,0.5,0.2,0.8
				c0,0.4-0.1,0.7-0.3,0.9s-0.5,0.4-0.9,0.5c0.2,0.1,0.4,0.3,0.5,0.4s0.3,0.4,0.5,0.8l0.6,0.9h-1.2l-0.7-1.1
				c-0.3-0.4-0.4-0.6-0.5-0.7c-0.1-0.1-0.2-0.2-0.3-0.2c-0.1,0-0.3,0-0.5,0h-0.2v2L171.7,32.6L171.7,32.6z M172.7,29.8h0.7
				c0.5,0,0.8,0,0.9,0c0.1,0,0.2-0.1,0.3-0.2c0-0.1,0.1-0.2,0.1-0.4c0-0.2,0-0.3-0.1-0.4s-0.2-0.2-0.4-0.2c-0.1,0-0.3,0-0.7,0h-0.8
				V29.8z"/>
			<path class="st1" d="M176.6,32.6v-4.9h1v4.9L176.6,32.6L176.6,32.6z"/>
			<path class="st1" d="M178.6,32.6v-4.9h0.9l2,3.2v-3.2h0.9v4.9h-1l-1.9-3.2v3.2H178.6z"/>
			<path class="st1" d="M183.5,32.6v-4.9h3.6v0.8h-2.6v1.1h2.4v0.8h-2.4v1.4h2.8v0.8L183.5,32.6L183.5,32.6z"/>
			<path class="st1" d="M194.1,32.6H193l-0.4-1.1h-1.9l-0.4,1.1h-1l1.9-4.9h1L194.1,32.6z M192.3,30.7l-0.7-1.8l-0.7,1.8H192.3z"/>
			<path class="st1" d="M198.5,32c0.2,0.2,0.5,0.3,0.8,0.4l-0.4,0.7c-0.1,0-0.3-0.1-0.5-0.2c0,0-0.3-0.2-0.7-0.5
				c-0.3,0.1-0.7,0.2-1.1,0.2c-0.8,0-1.4-0.2-1.8-0.7c-0.4-0.5-0.6-1.1-0.6-1.8c0-0.8,0.2-1.4,0.6-1.8c0.4-0.5,1-0.7,1.7-0.7
				s1.3,0.2,1.7,0.7c0.4,0.5,0.6,1.1,0.6,1.8c0,0.4,0,0.8-0.2,1.1C198.8,31.6,198.7,31.8,198.5,32z M197.7,31.5
				c0.1-0.1,0.2-0.3,0.3-0.5c0-0.2,0.1-0.5,0.1-0.7c0-0.6-0.1-1-0.4-1.3s-0.6-0.4-1-0.4c-0.4,0-0.7,0.1-1,0.4s-0.4,0.7-0.4,1.3
				c0,0.6,0.1,1,0.4,1.3c0.3,0.3,0.6,0.4,0.9,0.4c0.1,0,0.3,0,0.4-0.1c-0.2-0.1-0.4-0.2-0.6-0.3l0.3-0.5
				C197.1,31.1,197.5,31.2,197.7,31.5z"/>
		</g>
		<g class="st2">
			<path class="st1" d="M199.3,27.7h1v2.7c0,0.4,0,0.7,0,0.8c0,0.2,0.1,0.4,0.3,0.5c0.2,0.1,0.4,0.2,0.6,0.2c0.3,0,0.5,0,0.6-0.2
				c0.1-0.1,0.2-0.3,0.3-0.4c0-0.2,0-0.5,0-0.8v-2.8h1v2.6c0,0.6,0,1-0.1,1.3c0,0.2-0.1,0.5-0.3,0.6c-0.1,0.2-0.3,0.3-0.6,0.4
				c-0.2,0.1-0.5,0.1-0.9,0.1c-0.5,0-0.8,0-1.1-0.2c-0.2-0.1-0.5-0.2-0.6-0.4c-0.1-0.2-0.2-0.4-0.3-0.5c0-0.3-0.1-0.7-0.1-1.2
				L199.3,27.7L199.3,27.7z"/>
		</g>
		<g class="st2">
			<path class="st1" d="M208,32.6h-1.1l-0.4-1.1h-1.9l-0.4,1.1h-1l1.8-4.9h1L208,32.6z M206.1,30.7l-0.7-1.8l-0.7,1.8H206.1z"/>
			<path class="st1" d="M208.5,32.6v-4.9h2.1c0.5,0,0.9,0,1.1,0.1s0.4,0.2,0.6,0.5c0.1,0.2,0.2,0.5,0.2,0.8c0,0.4-0.1,0.7-0.3,0.9
				c-0.2,0.2-0.5,0.4-0.9,0.5c0.2,0.1,0.4,0.3,0.5,0.4s0.3,0.4,0.5,0.8l0.6,0.9h-1.2l-0.7-1.1c-0.3-0.4-0.4-0.6-0.5-0.7
				c-0.1-0.1-0.2-0.2-0.3-0.2s-0.3,0-0.5,0h-0.2v2L208.5,32.6L208.5,32.6L208.5,32.6z M209.4,29.8h0.7c0.5,0,0.8,0,0.9,0
				s0.2-0.1,0.3-0.2s0.1-0.2,0.1-0.4c0-0.2,0-0.3-0.1-0.4c-0.1-0.1-0.2-0.2-0.4-0.2c-0.1,0-0.3,0-0.7,0h-0.8L209.4,29.8L209.4,29.8z
				"/>
			<path class="st1" d="M213.4,32.6v-4.9h1v4.9L213.4,32.6L213.4,32.6z"/>
			<path class="st1" d="M215.3,27.7h1v2.7c0,0.4,0,0.7,0,0.8c0,0.2,0.1,0.4,0.3,0.5c0.2,0.1,0.4,0.2,0.6,0.2s0.5,0,0.6-0.2
				c0.1-0.1,0.2-0.3,0.3-0.4c0-0.2,0-0.5,0-0.8v-2.8h1v2.6c0,0.6,0,1-0.1,1.3c0,0.2-0.1,0.5-0.3,0.6c-0.1,0.2-0.3,0.3-0.6,0.4
				c-0.2,0.1-0.5,0.1-0.9,0.1c-0.5,0-0.8,0-1.1-0.2c-0.2-0.1-0.5-0.2-0.6-0.4c-0.1-0.2-0.2-0.4-0.3-0.5c0-0.3-0.1-0.7-0.1-1.2
				L215.3,27.7L215.3,27.7z"/>
			<path class="st1" d="M220.2,32.6v-4.9h1.5l0.9,3.3l0.9-3.3h1.5v4.9h-0.9v-3.8l-1,3.8h-0.9l-0.9-3.8v3.8L220.2,32.6L220.2,32.6z"
				/>
		</g>
	</g>
</g>
<path class="st1" d="M231.1,42.5l3.3,0.1c0.5-0.6,0.9-1.2,1.2-1.8l-3.8-0.3l4-0.1c0-0.2,0.1-0.4,0.1-0.5c0-0.5,0-0.8-0.1-1.2
	l-2.9-0.1l2.8-0.4c-0.4-0.9-1.3-1.4-2-1.7c1.8,0.2,4.6,0.3,6.3-1.4l-7.2-1.1l7.8,0.4c0.3-0.5,0.5-1,0.6-1.7l-7.3-0.6l7.4-0.1
	c0-0.2,0-0.5,0-0.8c0-0.2,0-0.4,0-0.6l-8.2-0.4l7.6-1c-2.5-3.2-11.3-1.4-11.3-1.4l0.3,19.1c0,0,2.8-1.8,4.7-3.9L231.1,42.5z"/>
<path class="st1" d="M107.2,42.5l-3.3,0.1c-0.5-0.6-0.9-1.2-1.2-1.8l3.8-0.3l-4-0.1c0-0.2-0.1-0.4-0.1-0.5c0-0.5,0-0.8,0.1-1.2
	l2.9-0.1l-2.8-0.4c0.4-0.9,1.3-1.4,2-1.7c-1.8,0.2-4.6,0.3-6.3-1.4l7.2-1.1l-7.8,0.4c-0.3-0.5-0.5-1-0.6-1.7l7.3-0.6L97.1,32
	c0-0.2,0-0.5,0-0.8c0-0.2,0-0.4,0-0.6l8.2-0.4l-7.6-1c2.5-3.2,11.4-1.4,11.4-1.4l-0.3,19.1c0,0-2.8-1.8-4.7-3.9L107.2,42.5z"/>
</svg>
